<svg xmlns="http://www.w3.org/2000/svg" xml:space="preserve" width="8276" height="8257" style="shape-rendering:geometricPrecision;text-rendering:geometricPrecision;image-rendering:optimizeQuality;fill-rule:evenodd;clip-rule:evenodd" viewBox="0 0 3531 3523"><path d="m786 2638 127-486 125-480c3-17 11-33 24-47L2390 297h1l192-192c70-70 162-105 254-105s184 35 254 105l335 335c70 70 105 162 105 254s-35 184-105 254l-193 192-1328 1328v1h-1v1h-1v1h-1l-1 1-1 1-1 1-1 1-1 1h-1v1h-1l-1 1-1 1h-1l-1 1h-1c-1 1-3 2-4 3h-1l-1 1c-1 1-3 1-4 2h-1l-1 1h-1l-1 1h-2l-1 1c-4 1-7 2-11 3h-3l-481 126-487 127c-46 12-94-16-106-62-4-15-3-31 1-45zM2136 51c48 0 87 39 87 87s-39 87-87 87H474c-83 0-158 34-212 88-54 55-88 130-88 212v2524c0 82 34 157 88 211 54 55 129 89 212 89h2524c82 0 157-34 211-89 54-54 88-129 88-211V1434c0-48 39-87 87-87s87 39 87 87v1615c0 130-53 249-139 334-86 86-204 140-334 140H474c-131 0-249-54-335-140-86-85-139-204-139-334V525c0-130 53-249 139-335 86-85 204-139 335-139h1662zm264 957c34-34 89-34 123 0s34 89 0 123l-564 564c-34 34-89 34-123 0s-34-89 0-123l564-564zm175-649 597 597 131-131c36-36 54-84 54-131 0-48-18-95-54-131l-335-335c-36-36-84-54-131-54-48 0-95 18-131 54l-131 131zM1247 1687l298 298 299 299 1205-1205-597-597-1205 1205zm428 674-506-505-89 340-89 344 344-90 340-89z" style="fill:#3a6ccc;fill-rule:nonzero"/></svg>