<svg xmlns="http://www.w3.org/2000/svg" xml:space="preserve" width="8636" height="8631" style="shape-rendering:geometricPrecision;text-rendering:geometricPrecision;image-rendering:optimizeQuality;fill-rule:evenodd;clip-rule:evenodd" viewBox="0 0 1801 1800"><path d="M1122 216V85H680v131h442zM520 477c-1-24 17-44 40-45 24-1 44 17 45 40l61 1070c1 24-17 44-40 45-24 1-44-17-45-40L520 477zm688-5c2-23 22-41 45-40s41 21 40 45l-61 1070c-1 23-21 41-44 40-24-1-42-21-40-45l60-1070zm-350-1c0-24 19-43 42-43 24 0 43 19 43 43v1077c0 24-19 43-43 43-23 0-42-19-42-43V471zM43 301c-24 0-43-19-43-43 0-23 19-42 43-42h552V43c0-24 19-43 42-43h527c24 0 43 19 43 43v173h552c23 0 42 19 42 42 0 24-19 43-42 43h-187l-82 1456v1c0 23-19 42-43 42H366c-22 0-41-17-42-40L242 301H43zm363 1414h1001l80-1414H327l79 1414z" style="fill:#fff;fill-rule:nonzero"/></svg>